<svg xmlns="http://www.w3.org/2000/svg" viewBox="10.50 26.00 350.1 78" width="700" height="156" fill="none" role="img" aria-label="Arcova">
  <defs><linearGradient id="g" gradientUnits="userSpaceOnUse" x1="20" y1="98" x2="100" y2="28"><stop offset="0" stop-color="#00a4b4"/><stop offset="0.44" stop-color="#7fd8cd"/><stop offset="0.76" stop-color="#d8c6e6"/><stop offset="1" stop-color="#f6cdda"/></linearGradient></defs>
  <g fill="url(#g)"><path d="M16.5 94L16.5 73.5A7.5 7.5 0 0 1 31.5 73.5L31.5 94A4 4 0 0 1 27.5 98L20.5 98A4 4 0 0 1 16.5 94Z"/><path d="M34.5 94L34.5 51.5A7.5 7.5 0 0 1 49.5 51.5L49.5 94A4 4 0 0 1 45.5 98L38.5 98A4 4 0 0 1 34.5 94Z"/><path d="M52.5 94L52.5 39.5A7.5 7.5 0 0 1 67.5 39.5L67.5 94A4 4 0 0 1 63.5 98L56.5 98A4 4 0 0 1 52.5 94Z"/><path d="M70.5 94L70.5 51.5A7.5 7.5 0 0 1 85.5 51.5L85.5 94A4 4 0 0 1 81.5 98L74.5 98A4 4 0 0 1 70.5 94Z"/><path d="M88.5 94L88.5 73.5A7.5 7.5 0 0 1 103.5 73.5L103.5 94A4 4 0 0 1 99.5 98L92.5 98A4 4 0 0 1 88.5 94Z"/></g>
  <path transform="translate(118.10 84.24)" d="M37-38.63Q38.26-38.63 39.11-37.78Q39.96-36.93 39.96-35.67L39.96-3.03Q39.96-1.78 39.11-0.89Q38.26 0 37 0Q35.67 0 34.85-0.89Q34.04-1.78 34.04-3.03L34.04-10.06L35.45-10.21Q35.45-8.58 34.34-6.66Q33.23-4.74 31.30-3.07Q29.38-1.41 26.75-0.33Q24.12 0.74 21.09 0.74Q16.06 0.74 12.06-1.89Q8.07-4.51 5.73-9.03Q3.40-13.54 3.40-19.31Q3.40-25.16 5.73-29.64Q8.07-34.11 12.06-36.67Q16.06-39.22 20.94-39.22Q24.12-39.22 26.86-38.18Q29.60-37.15 31.63-35.37Q33.67-33.60 34.82-31.45Q35.96-29.30 35.96-27.16L34.04-27.60L34.04-35.67Q34.04-36.93 34.85-37.78Q35.67-38.63 37-38.63M21.76-4.74Q25.46-4.74 28.30-6.66Q31.15-8.58 32.74-11.88Q34.34-15.17 34.34-19.31Q34.34-23.38 32.74-26.68Q31.15-29.97 28.30-31.86Q25.46-33.74 21.76-33.74Q18.13-33.74 15.28-31.89Q12.43-30.04 10.80-26.79Q9.18-23.53 9.18-19.31Q9.18-15.17 10.77-11.88Q12.36-8.58 15.21-6.66Q18.06-4.74 21.76-4.74M53.87 0Q52.61 0 51.76-0.89Q50.91-1.78 50.91-3.03L50.91-35.30Q50.91-36.56 51.76-37.41Q52.61-38.26 53.87-38.26Q55.20-38.26 56.02-37.41Q56.83-36.56 56.83-35.30L56.83-25.53L55.94-27.08Q56.39-29.38 57.53-31.56Q58.68-33.74 60.46-35.48Q62.23-37.22 64.53-38.22Q66.82-39.22 69.56-39.22Q71.19-39.22 72.56-38.44Q73.93-37.67 73.93-36.26Q73.93-34.71 73.11-33.97Q72.30-33.23 71.26-33.23Q70.30-33.23 69.41-33.63Q68.52-34.04 67.19-34.04Q65.34-34.04 63.53-33.04Q61.72-32.04 60.20-30.19Q58.68-28.34 57.76-26.01Q56.83-23.68 56.83-21.02L56.83-3.03Q56.83-1.78 55.98-0.89Q55.13 0 53.87 0M95.98-39.22Q99.75-39.22 102.79-38.41Q105.82-37.59 107.60-36.19Q109.37-34.78 109.37-33Q109.37-32.04 108.71-31.15Q108.04-30.27 106.93-30.27Q105.89-30.27 105.27-30.64Q104.64-31.01 104.08-31.60Q103.53-32.19 102.56-32.63Q101.68-33.15 99.97-33.45Q98.27-33.74 96.57-33.74Q92.50-33.74 89.43-31.82Q86.36-29.90 84.58-26.64Q82.81-23.38 82.81-19.24Q82.81-15.10 84.51-11.84Q86.21-8.58 89.24-6.66Q92.28-4.74 96.27-4.74Q98.86-4.74 100.42-5.18Q101.97-5.62 103.01-6.22Q104.34-6.96 105.04-7.70Q105.75-8.44 106.93-8.44Q108.19-8.44 108.89-7.62Q109.59-6.81 109.59-5.62Q109.59-4.29 107.74-2.81Q105.89-1.33 102.75-0.30Q99.60 0.74 95.61 0.74Q89.98 0.74 85.77-1.89Q81.55-4.51 79.22-9.06Q76.89-13.62 76.89-19.24Q76.89-24.86 79.29-29.38Q81.70-33.89 85.99-36.56Q90.28-39.22 95.98-39.22M153.70-19.24Q153.70-13.47 151.15-8.95Q148.59-4.44 144.26-1.85Q139.93 0.74 134.53 0.74Q129.13 0.74 124.76-1.85Q120.40-4.44 117.84-8.95Q115.29-13.47 115.29-19.24Q115.29-25.01 117.84-29.53Q120.40-34.04 124.76-36.63Q129.13-39.22 134.53-39.22Q139.93-39.22 144.26-36.63Q148.59-34.04 151.15-29.53Q153.70-25.01 153.70-19.24M147.78-19.24Q147.78-23.53 146.04-26.79Q144.30-30.04 141.30-31.89Q138.31-33.74 134.53-33.74Q130.76-33.74 127.76-31.89Q124.76-30.04 122.99-26.79Q121.21-23.53 121.21-19.24Q121.21-15.02 122.99-11.77Q124.76-8.51 127.76-6.62Q130.76-4.74 134.53-4.74Q138.31-4.74 141.30-6.62Q144.30-8.51 146.04-11.77Q147.78-15.02 147.78-19.24M162.21-38.92Q163.10-38.92 163.91-38.44Q164.72-37.96 165.09-37.07L177.38-8.21L176.19-7.62L188.70-37Q189.51-39 191.44-38.92Q192.55-38.92 193.36-38.18Q194.18-37.44 194.18-36.33Q194.18-35.89 194.06-35.48Q193.95-35.08 193.81-34.78L179.52-1.92Q178.71-0.07 176.93 0Q175.97 0.15 175.12-0.37Q174.27-0.89 173.90-1.92L159.62-34.71Q159.47-35 159.36-35.37Q159.25-35.74 159.25-36.26Q159.25-37.22 160.03-38.07Q160.80-38.92 162.21-38.92M233.54-38.63Q234.80-38.63 235.65-37.78Q236.50-36.93 236.50-35.67L236.50-3.03Q236.50-1.78 235.65-0.89Q234.80 0 233.54 0Q232.21 0 231.40-0.89Q230.58-1.78 230.58-3.03L230.58-10.06L231.99-10.21Q231.99-8.58 230.88-6.66Q229.77-4.74 227.85-3.07Q225.92-1.41 223.30-0.33Q220.67 0.74 217.63 0.74Q212.60 0.74 208.61-1.89Q204.61-4.51 202.28-9.03Q199.95-13.54 199.95-19.31Q199.95-25.16 202.28-29.64Q204.61-34.11 208.61-36.67Q212.60-39.22 217.49-39.22Q220.67-39.22 223.41-38.18Q226.14-37.15 228.18-35.37Q230.21-33.60 231.36-31.45Q232.51-29.30 232.51-27.16L230.58-27.60L230.58-35.67Q230.58-36.93 231.40-37.78Q232.21-38.63 233.54-38.63M218.30-4.74Q222-4.74 224.85-6.66Q227.70-8.58 229.29-11.88Q230.88-15.17 230.88-19.31Q230.88-23.38 229.29-26.68Q227.70-29.97 224.85-31.86Q222-33.74 218.30-33.74Q214.67-33.74 211.83-31.89Q208.98-30.04 207.35-26.79Q205.72-23.53 205.72-19.31Q205.72-15.17 207.31-11.88Q208.90-8.58 211.75-6.66Q214.60-4.74 218.30-4.74" fill="#ffffff"/>
</svg>
