<svg xmlns="http://www.w3.org/2000/svg" viewBox="11 27 98 76" width="200" height="155" fill="none" role="img" aria-label="Arcova">
  <defs>
    <linearGradient id="arcovaTeal" x1="0" y1="1" x2="0" y2="0">
      <stop offset="0" stop-color="#006c79"/>
      <stop offset="0.32" stop-color="#00a4b4"/>
      <stop offset="0.62" stop-color="#2bbfb8"/>
      <stop offset="0.84" stop-color="#7adfd2"/>
      <stop offset="1" stop-color="#d6f7ef" stop-opacity="0.25"/>
    </linearGradient>
  </defs>
  <g fill="url(#arcovaTeal)">
    <path d="M16.5 94L16.5 73.5A7.5 7.5 0 0 1 31.5 73.5L31.5 94A4 4 0 0 1 27.5 98L20.5 98A4 4 0 0 1 16.5 94Z"/>
    <path d="M34.5 94L34.5 51.5A7.5 7.5 0 0 1 49.5 51.5L49.5 94A4 4 0 0 1 45.5 98L38.5 98A4 4 0 0 1 34.5 94Z"/>
    <path d="M52.5 94L52.5 39.5A7.5 7.5 0 0 1 67.5 39.5L67.5 94A4 4 0 0 1 63.5 98L56.5 98A4 4 0 0 1 52.5 94Z"/>
    <path d="M70.5 94L70.5 51.5A7.5 7.5 0 0 1 85.5 51.5L85.5 94A4 4 0 0 1 81.5 98L74.5 98A4 4 0 0 1 70.5 94Z"/>
    <path d="M88.5 94L88.5 73.5A7.5 7.5 0 0 1 103.5 73.5L103.5 94A4 4 0 0 1 99.5 98L92.5 98A4 4 0 0 1 88.5 94Z"/>
  </g>
</svg>
