<svg xmlns="http://www.w3.org/2000/svg" xmlns:xlink="http://www.w3.org/1999/xlink" width="40" zoomAndPan="magnify" viewBox="0 0 30 30.000001" height="40" preserveAspectRatio="xMidYMid meet" version="1.2"><defs><clipPath id="797b25bc86"><path d="M 0.484375 0 L 29.515625 0 L 29.515625 29.03125 L 0.484375 29.03125 Z M 0.484375 0 "/></clipPath><clipPath id="36f5d9e4f1"><path d="M 0.484375 0 L 29.515625 0 L 29.515625 29.03125 L 0.484375 29.03125 Z M 0.484375 0 "/></clipPath><clipPath id="c7fcb7804d"><path d="M 15 0 C 6.984375 0 0.484375 6.5 0.484375 14.515625 C 0.484375 22.53125 6.984375 29.03125 15 29.03125 C 23.015625 29.03125 29.515625 22.53125 29.515625 14.515625 C 29.515625 6.5 23.015625 0 15 0 Z M 15 0 "/></clipPath><clipPath id="d864debdfe"><path d="M 6.242188 5.316406 L 23.664062 5.316406 L 23.664062 20.558594 L 6.242188 20.558594 Z M 6.242188 5.316406 "/></clipPath><clipPath id="8320c7de7d"><path d="M 14.953125 5.316406 L 23.664062 20.558594 L 6.242188 20.558594 Z M 14.953125 5.316406 "/></clipPath></defs><g id="9b234e9c0b"><g clip-rule="nonzero" clip-path="url(#797b25bc86)"><path style=" stroke:none;fill-rule:nonzero;fill:#ffffff;fill-opacity:1;" d="M 0.484375 0 L 29.515625 0 L 29.515625 29.03125 L 0.484375 29.03125 Z M 0.484375 0 "/><path style=" stroke:none;fill-rule:nonzero;fill:#ffffff;fill-opacity:1;" d="M 0.484375 0 L 29.515625 0 L 29.515625 29.03125 L 0.484375 29.03125 Z M 0.484375 0 "/></g><g clip-rule="nonzero" clip-path="url(#36f5d9e4f1)"><g clip-rule="nonzero" clip-path="url(#c7fcb7804d)"><path style=" stroke:none;fill-rule:nonzero;fill:#00a4b4;fill-opacity:1;" d="M 0.484375 0 L 29.515625 0 L 29.515625 29.03125 L 0.484375 29.03125 Z M 0.484375 0 "/></g></g><g clip-rule="nonzero" clip-path="url(#d864debdfe)"><g clip-rule="nonzero" clip-path="url(#8320c7de7d)"><path style="fill:none;stroke-width:4;stroke-linecap:butt;stroke-linejoin:miter;stroke:#ffffff;stroke-opacity:1;stroke-miterlimit:4;" d="M 12.062218 -0.00243684 L 24.126463 21.107287 L -0.00202746 21.107287 Z M 12.062218 -0.00243684 " transform="matrix(0.722046,0,0,0.722046,6.243651,5.318166)"/></g></g></g></svg>